<?xml version="1.0" standalone="no"?>
<!DOCTYPE svg PUBLIC "-//W3C//DTD SVG 20010904//EN"
 "http://www.w3.org/TR/2001/REC-SVG-20010904/DTD/svg10.dtd">
<svg version="1.0" xmlns="http://www.w3.org/2000/svg"
 width="922.000000pt" height="922.000000pt" viewBox="0 0 922.000000 922.000000"
 preserveAspectRatio="xMidYMid meet">
<metadata>
Created by potrace 1.11, written by Peter Selinger 2001-2013
</metadata>
<g transform="translate(0.000000,922.000000) scale(0.100000,-0.100000)"
fill="#000000" stroke="none">
<path d="M0 4605 l0 -4575 4610 0 4610 0 0 4575 0 4575 -4610 0 -4610 0 0
-4575z m4282 2674 c79 -17 140 -52 218 -125 l70 -66 72 67 c113 108 235 150
365 128 142 -25 254 -110 316 -241 29 -61 32 -76 32 -162 0 -99 -17 -165 -56
-222 -24 -34 -24 -46 0 -24 34 31 151 66 222 66 315 1 514 -326 370 -608 -12
-23 -51 -74 -88 -112 l-66 -70 67 -69 c107 -111 151 -237 129 -368 -45 -262
-311 -415 -559 -322 -29 11 -64 29 -79 41 l-27 21 31 -54 c122 -217 44 -471
-179 -582 -61 -30 -71 -32 -175 -32 -101 0 -115 2 -170 29 -35 17 -90 58 -132
99 l-72 70 -72 -68 c-90 -84 -174 -126 -268 -133 -131 -9 -234 29 -326 122
-140 141 -163 329 -61 498 27 45 31 58 19 62 -8 3 -12 2 -8 -3 8 -14 -47 -49
-111 -71 -71 -25 -187 -26 -259 -4 -123 39 -230 145 -266 265 -29 95 -24 210
13 289 23 49 34 66 79 118 6 7 18 11 28 7 12 -5 13 -3 5 5 -9 9 -3 20 24 45
l36 33 -62 67 c-116 124 -147 197 -140 334 7 147 75 257 209 335 117 69 248
73 376 11 40 -19 77 -43 82 -53 6 -9 11 -13 11 -9 0 5 -9 22 -20 37 -140 196
-83 475 121 597 95 57 196 74 301 52z m1391 -3507 c11 -9 17 -29 17 -55 0 -51
-52 -107 -99 -107 -47 0 -85 41 -77 83 9 45 33 77 69 92 35 15 62 11 90 -13z
m-793 -100 c0 -4 -29 -109 -65 -234 -36 -125 -65 -230 -65 -234 0 -3 14 20 31
52 70 135 137 195 222 201 100 8 148 -48 155 -183 14 -264 -179 -567 -377
-591 -66 -8 -98 2 -132 39 -20 21 -30 26 -33 16 -11 -31 -45 -156 -51 -185 -8
-41 19 -70 75 -79 24 -4 40 -12 40 -20 0 -11 -34 -14 -180 -14 -150 0 -178 2
-174 14 3 8 21 17 40 21 59 11 48 -22 280 810 25 88 47 169 50 180 3 11 -7 0
-21 -25 -45 -76 -186 -240 -207 -240 -20 0 -3 28 58 93 79 83 147 185 194 289
l34 76 56 10 c30 5 58 10 63 11 4 0 7 -2 7 -7z m-2147 -245 c73 -43 108 -106
122 -221 l7 -56 -225 0 -225 0 -7 -39 c-3 -21 -2 -73 4 -115 17 -118 64 -196
143 -237 88 -45 209 -3 265 92 18 30 43 39 43 16 0 -29 -62 -109 -107 -137
-63 -40 -115 -53 -189 -47 -208 16 -331 207 -294 455 34 220 146 327 336 319
66 -3 89 -8 127 -30z m507 -11 c-1 -17 -2 -49 -1 -70 l1 -40 29 46 c41 65 104
99 192 106 93 6 150 -15 187 -71 l27 -40 5 -283 c6 -314 6 -317 76 -330 19 -3
34 -12 34 -19 0 -11 -36 -13 -165 -13 -127 0 -165 3 -165 13 0 7 13 15 29 18
63 13 62 9 59 332 -3 291 -3 294 -26 318 -49 52 -149 40 -213 -25 -62 -64 -69
-100 -69 -358 0 -249 0 -250 63 -265 15 -4 27 -13 27 -19 0 -10 -41 -13 -165
-13 -134 -1 -165 2 -165 13 0 8 10 14 24 14 14 0 38 11 53 24 l28 24 3 249 c2
136 0 268 -3 292 -8 51 -43 91 -80 91 -16 0 -25 6 -25 15 0 12 17 15 88 16 48
1 98 4 112 8 34 11 42 4 40 -33z m1077 19 c55 -32 71 -111 33 -153 -61 -65
-129 17 -85 102 20 38 12 46 -42 46 -55 0 -98 -24 -118 -66 -29 -62 -15 -125
49 -213 121 -166 138 -291 53 -387 -66 -76 -192 -105 -292 -67 -83 31 -124
124 -75 173 27 27 46 25 76 -6 23 -22 26 -31 22 -87 l-3 -62 50 -3 c171 -9
205 162 69 349 -103 141 -109 249 -20 335 23 22 58 45 77 52 50 16 169 9 206
-13z m1260 -1 c23 -23 25 -31 20 -82 -3 -34 -43 -163 -97 -315 -51 -146 -88
-267 -85 -277 3 -10 13 -21 22 -24 30 -12 65 25 105 110 34 74 58 104 58 74 0
-24 -52 -144 -75 -175 -51 -66 -176 -86 -217 -35 -29 36 -21 85 38 255 31 88
73 210 95 272 42 121 47 158 24 167 -42 16 -81 -27 -125 -136 -13 -35 -28 -58
-37 -58 -10 0 -13 6 -8 18 4 9 16 40 26 69 11 28 30 66 42 84 51 76 163 104
214 53z m443 6 c33 -33 27 -103 -26 -295 -3 -11 18 27 46 84 79 163 148 231
233 231 102 0 121 -127 26 -175 -35 -18 -75 -11 -90 17 -15 28 -2 75 28 98 21
17 23 20 7 20 -93 0 -245 -283 -338 -630 l-23 -85 -61 -3 c-34 -2 -62 0 -62 4
0 4 41 156 91 337 96 346 99 365 48 359 -33 -3 -64 -44 -96 -124 -14 -38 -32
-68 -39 -68 -20 0 40 157 74 193 53 57 144 75 182 37z m907 -14 c47 -56 20
-151 -65 -228 -53 -47 -185 -121 -284 -158 -31 -11 -58 -27 -61 -34 -13 -34
-18 -145 -8 -183 30 -112 154 -108 268 8 51 52 63 58 63 33 0 -25 -110 -128
-165 -154 -115 -56 -237 -30 -282 60 -62 121 1 352 142 522 96 115 199 170
309 165 50 -3 63 -8 83 -31z"/>
<path d="M4905 3379 c-42 -37 -111 -146 -158 -250 -39 -85 -109 -293 -109
-325 -1 -32 30 -71 64 -83 88 -31 194 69 266 249 61 153 85 358 49 413 -24 38
-66 36 -112 -4z"/>
<path d="M2509 3407 c-42 -28 -88 -115 -96 -184 l-6 -53 158 0 158 0 -6 69
c-6 73 -31 136 -69 171 -30 28 -95 27 -139 -3z"/>
<path d="M6740 3406 c-20 -13 -54 -48 -77 -77 -62 -81 -146 -260 -129 -276 3
-3 45 13 93 36 142 68 197 143 198 266 0 67 -1 70 -25 72 -14 1 -41 -8 -60
-21z"/>
</g>
</svg>
