<?xml version="1.0" standalone="no"?>
<!DOCTYPE svg PUBLIC "-//W3C//DTD SVG 20010904//EN"
 "http://www.w3.org/TR/2001/REC-SVG-20010904/DTD/svg10.dtd">
<svg version="1.0" xmlns="http://www.w3.org/2000/svg"
 width="100.000000pt" height="100.000000pt" viewBox="0 0 100.000000 100.000000"
 preserveAspectRatio="xMidYMid meet">
<metadata>
Created by potrace 1.11, written by Peter Selinger 2001-2013
</metadata>
<g transform="translate(0.000000,100.000000) scale(0.100000,-0.100000)"
fill="#000000" stroke="none">
<path d="M323 838 c-34 -24 -43 -44 -43 -95 0 -26 -5 -34 -23 -38 -13 -4 -27
-5 -33 -4 -21 5 -65 -23 -84 -53 -26 -43 -26 -98 1 -132 21 -27 21 -28 3 -61
-10 -19 -21 -32 -24 -30 -10 6 7 -90 20 -114 14 -28 61 -51 103 -51 34 0 34
-1 40 -50 5 -42 37 -114 37 -85 0 6 4 4 9 -3 15 -24 86 -27 128 -5 29 15 43
18 61 10 12 -6 22 -14 22 -19 0 -14 89 -9 120 7 42 21 60 53 60 103 l0 44 38
-4 c22 -2 43 0 48 4 67 54 69 58 69 121 0 39 -5 62 -13 65 -6 2 -12 10 -12 18
0 9 -4 12 -10 9 -17 -11 -11 7 8 24 11 9 22 29 26 44 8 33 -3 129 -14 122 -4
-3 -13 1 -19 9 -14 16 -55 29 -93 29 -26 0 -28 3 -28 39 0 50 -21 91 -55 106
-32 15 -111 16 -120 2 -3 -5 -15 -10 -26 -10 -11 0 -17 -4 -14 -10 11 -18 -11
-10 -30 10 -26 29 -109 28 -152 -2z"/>
</g>
</svg>
