<?xml version="1.0" standalone="no"?>
<!DOCTYPE svg PUBLIC "-//W3C//DTD SVG 20010904//EN"
 "http://www.w3.org/TR/2001/REC-SVG-20010904/DTD/svg10.dtd">
<svg version="1.0" xmlns="http://www.w3.org/2000/svg"
 width="922.000000pt" height="922.000000pt" viewBox="0 0 922.000000 922.000000"
 preserveAspectRatio="xMidYMid meet">
<metadata>
Created by potrace 1.11, written by Peter Selinger 2001-2013
</metadata>
<g transform="translate(0.000000,922.000000) scale(0.100000,-0.100000)"
fill="#000000" stroke="none">
<path d="M0 4605 l0 -4575 4610 0 4610 0 0 4575 0 4575 -4610 0 -4610 0 0
-4575z m4322 2665 c69 -21 140 -69 207 -139 l43 -45 51 54 c69 71 139 116 212
135 199 51 393 -38 487 -224 31 -63 33 -71 33 -176 0 -103 -2 -115 -31 -173
-17 -34 -30 -62 -29 -62 2 0 28 12 59 26 265 121 569 -62 584 -351 5 -89 -13
-172 -50 -235 -12 -19 -50 -65 -86 -102 l-65 -66 62 -65 c75 -77 98 -114 123
-190 61 -195 -31 -401 -220 -494 -73 -36 -80 -38 -176 -38 -84 1 -110 5 -156
24 -30 14 -64 31 -74 40 -15 13 -14 7 7 -29 121 -211 36 -491 -177 -585 -177
-78 -343 -46 -488 93 l-67 65 -67 -62 c-37 -34 -97 -76 -133 -94 -62 -30 -72
-32 -176 -32 -103 0 -114 2 -175 31 -154 74 -240 209 -240 377 0 73 27 171 61
219 24 33 20 35 -23 8 -50 -31 -154 -60 -212 -60 -251 1 -450 236 -407 480 18
97 52 163 126 239 36 37 65 70 65 72 0 2 -28 34 -62 70 -35 36 -75 90 -90 120
-103 207 -19 456 190 561 64 31 72 33 178 33 106 0 113 -1 181 -35 l71 -35
-23 40 c-31 52 -55 145 -55 210 2 281 272 479 542 395z m1333 -3480 c56 -21
54 -118 -4 -159 -85 -61 -177 20 -124 110 16 27 64 58 90 59 6 0 23 -4 38 -10z
m-826 -309 c-76 -267 -76 -266 -38 -201 45 79 104 145 143 164 54 25 128 21
165 -9 49 -42 65 -99 58 -212 -9 -171 -77 -332 -183 -439 -75 -77 -122 -98
-217 -99 -76 0 -80 1 -107 32 l-29 33 -10 -38 c-6 -20 -17 -59 -26 -87 -31
-103 -16 -139 59 -150 33 -5 43 -11 39 -21 -4 -11 -40 -14 -184 -14 -98 0
-179 2 -179 4 0 15 14 35 21 30 16 -10 77 27 88 54 6 15 60 205 121 422 61
217 117 417 125 445 8 27 13 51 11 53 -2 1 -17 -19 -33 -45 -32 -50 -133 -169
-165 -191 -10 -7 -23 -10 -29 -7 -6 4 12 30 43 63 106 113 176 218 229 344
l24 57 50 4 c28 2 57 4 66 5 12 2 4 -36 -42 -197z m-2142 -33 c93 -23 161
-121 171 -245 l5 -63 -227 0 -226 0 0 -82 c0 -46 5 -101 11 -123 16 -59 64
-129 111 -161 84 -59 210 -27 274 68 21 31 35 43 44 38 33 -20 -37 -120 -118
-168 -42 -24 -56 -27 -142 -27 -76 0 -104 4 -141 21 -149 69 -220 261 -175
475 47 219 203 320 413 267z m923 -16 c14 -10 36 -40 50 -68 24 -48 25 -56 30
-322 6 -304 3 -294 77 -308 18 -3 33 -12 33 -20 0 -11 -32 -14 -170 -14 -140
0 -170 2 -170 14 0 8 13 17 30 21 58 13 60 23 60 317 0 160 -4 278 -10 294
-18 45 -48 64 -102 64 -59 0 -94 -17 -136 -64 -53 -60 -62 -113 -62 -351 0
-231 4 -247 58 -258 16 -3 32 -13 35 -21 6 -14 -15 -16 -168 -16 -144 0 -175
2 -175 14 0 9 15 17 40 21 70 12 70 14 70 331 0 268 -1 283 -20 307 -12 15
-36 29 -55 33 -19 3 -35 12 -35 19 0 9 31 14 108 18 59 3 115 8 125 12 15 6
17 0 17 -65 l0 -72 33 44 c40 52 106 90 167 98 61 7 139 -5 170 -28z m697 9
c48 -22 63 -45 63 -98 0 -57 -23 -85 -68 -81 -29 2 -40 9 -51 32 -12 26 -11
34 7 77 23 54 19 59 -48 59 -73 0 -132 -83 -115 -163 4 -18 31 -68 61 -112 85
-128 107 -184 102 -263 -7 -119 -85 -198 -207 -209 -97 -9 -146 3 -191 46 -35
33 -40 43 -40 84 0 51 18 77 54 77 47 0 61 -23 61 -99 l0 -70 37 -6 c79 -14
150 37 163 114 10 59 -16 136 -76 220 -76 108 -93 152 -86 223 7 80 42 132
110 164 66 30 162 33 224 5z m1276 -7 c22 -28 23 -106 1 -165 -102 -280 -158
-451 -158 -484 -1 -36 2 -40 25 -43 33 -4 59 29 99 124 30 73 35 79 49 70 7
-5 2 -30 -15 -74 -50 -135 -100 -182 -192 -182 -43 0 -58 5 -77 25 -36 35 -32
88 16 225 125 353 152 438 146 453 -10 27 -52 20 -80 -12 -14 -17 -37 -62 -52
-100 -16 -39 -34 -71 -42 -71 -18 0 -17 9 11 85 47 129 101 177 196 173 43 -1
59 -6 73 -24z m439 9 c27 -31 29 -70 9 -160 -11 -49 -22 -97 -26 -108 -3 -11
13 19 37 66 80 160 144 219 236 219 57 0 82 -26 82 -84 0 -33 -6 -49 -26 -69
-80 -81 -181 -4 -108 82 31 38 13 41 -33 6 -46 -36 -104 -125 -157 -243 -49
-110 -116 -302 -136 -394 l-13 -58 -67 0 -67 0 79 283 c109 391 108 386 101
402 -7 20 -48 19 -68 -1 -19 -20 -58 -95 -74 -146 -7 -21 -19 -38 -27 -38 -19
0 -18 8 10 85 46 128 96 174 187 175 31 0 51 -5 61 -17z m881 6 c84 -38 49
-192 -60 -272 -64 -47 -183 -110 -260 -137 -61 -22 -62 -23 -69 -66 -3 -24 -4
-75 -2 -114 5 -91 26 -115 97 -114 61 1 126 37 176 98 22 27 42 43 51 39 19
-7 4 -33 -54 -95 -115 -124 -299 -146 -375 -46 -32 42 -50 117 -42 177 32 237
206 477 385 532 38 11 126 10 153 -2z"/>
<path d="M4909 3377 c-20 -17 -51 -54 -69 -80 -70 -106 -179 -370 -196 -478
-5 -29 -1 -41 21 -67 22 -26 34 -32 66 -32 22 0 53 7 68 15 110 56 231 339
231 537 0 136 -44 174 -121 105z"/>
<path d="M2517 3411 c-41 -26 -75 -81 -92 -148 -8 -31 -15 -63 -15 -70 0 -10
35 -13 156 -13 l157 0 -7 53 c-12 89 -27 130 -61 164 -39 39 -92 44 -138 14z"/>
<path d="M6755 3412 c-73 -46 -163 -176 -205 -297 -11 -32 -20 -60 -20 -61 0
-8 109 40 158 69 91 54 146 155 140 254 -4 56 -23 66 -73 35z"/>
</g>
</svg>
